# xmcd
#
# Track frame offsets:
# 150
# 15100
# 29570
# 51704
# 62747
# 77127
# 94418
# 113027
# 124809
# 143006
#
# Disc length: 2193 seconds
#
#
# Revision: 0
# Processed by: cddbd v1.5.2PL0 Copyright (c) Steve Scherf et al.
# Submitted via: FreeRIP 2.96 
#
DISCID=86088f0a
DTITLE=Khamis, Randa [AUS] - What You Need
DYEAR=2011
DGENRE=Soul
TTITLE0=Power in Me [Randa and the Soul Kingdom] [from 'What You Need', Sep 2011] [FLVox]
TTITLE1=Love Sick [Randa and the Soul Kingdom] [from 'What You Need', Sep 2011] [FLVox]
TTITLE2=The Things [Randa and the Soul Kingdom] [from 'What You Need', Sep 2011] [FLVox]
TTITLE3=Watch It [Randa and the Soul Kingdom] [from 'What You Need', Sep 2011] [FLVox]
TTITLE4=Slide [Randa and the Soul Kingdom] [from 'What You Need', Sep 2011] [FLVox]
TTITLE5=Save Us [Randa and the Soul Kingdom] [from 'What You Need', Sep 2011] [FLVox]
TTITLE6=Cold [Randa and the Soul Kingdom] [from 'What You Need', Sep 2011] [FLVox]
TTITLE7=Be Yourself [Randa and the Soul Kingdom] [from 'What You Need', Sep 2011] [FLVox]
TTITLE8=What You Need [Randa and the Soul Kingdom] [from 'What You Need', Sep 2011] [FLVox]
TTITLE9=Now I'm Free [Randa and the Soul Kingdom] [from 'What You Need', Sep 2011] [FLVox]
EXTD=Jordanian-born Australian artist and Australian band originating in Perth, Western Australia
EXTT0=
EXTT1=
EXTT2=
EXTT3=
EXTT4=
EXTT5=
EXTT6=
EXTT7=
EXTT8=
EXTT9=
PLAYORDER=
